G04 #@! TF.GenerationSoftware,KiCad,Pcbnew,5.1.2-1.fc30*
G04 #@! TF.CreationDate,2019-06-07T00:12:30+03:00*
G04 #@! TF.ProjectId,kicad_spi_nor_opi,6b696361-645f-4737-9069-5f6e6f725f6f,rev?*
G04 #@! TF.SameCoordinates,Original*
G04 #@! TF.FileFunction,Soldermask,Top*
G04 #@! TF.FilePolarity,Negative*
%FSLAX46Y46*%
G04 Gerber Fmt 4.6, Leading zero omitted, Abs format (unit mm)*
G04 Created by KiCad (PCBNEW 5.1.2-1.fc30) date 2019-06-07 00:12:30*
%MOMM*%
%LPD*%
G04 APERTURE LIST*
%ADD10C,0.100000*%
G04 APERTURE END LIST*
D10*
G36*
X93350928Y-115063764D02*
G01*
X93372009Y-115070160D01*
X93391445Y-115080548D01*
X93408476Y-115094524D01*
X93422452Y-115111555D01*
X93432840Y-115130991D01*
X93439236Y-115152072D01*
X93442000Y-115180140D01*
X93442000Y-116643860D01*
X93439236Y-116671928D01*
X93432840Y-116693009D01*
X93422452Y-116712445D01*
X93408476Y-116729476D01*
X93391445Y-116743452D01*
X93372009Y-116753840D01*
X93350928Y-116760236D01*
X93322860Y-116763000D01*
X92859140Y-116763000D01*
X92831072Y-116760236D01*
X92809991Y-116753840D01*
X92790555Y-116743452D01*
X92773524Y-116729476D01*
X92759548Y-116712445D01*
X92749160Y-116693009D01*
X92742764Y-116671928D01*
X92740000Y-116643860D01*
X92740000Y-115180140D01*
X92742764Y-115152072D01*
X92749160Y-115130991D01*
X92759548Y-115111555D01*
X92773524Y-115094524D01*
X92790555Y-115080548D01*
X92809991Y-115070160D01*
X92831072Y-115063764D01*
X92859140Y-115061000D01*
X93322860Y-115061000D01*
X93350928Y-115063764D01*
X93350928Y-115063764D01*
G37*
G36*
X90810928Y-115063764D02*
G01*
X90832009Y-115070160D01*
X90851445Y-115080548D01*
X90868476Y-115094524D01*
X90882452Y-115111555D01*
X90892840Y-115130991D01*
X90899236Y-115152072D01*
X90902000Y-115180140D01*
X90902000Y-116643860D01*
X90899236Y-116671928D01*
X90892840Y-116693009D01*
X90882452Y-116712445D01*
X90868476Y-116729476D01*
X90851445Y-116743452D01*
X90832009Y-116753840D01*
X90810928Y-116760236D01*
X90782860Y-116763000D01*
X90319140Y-116763000D01*
X90291072Y-116760236D01*
X90269991Y-116753840D01*
X90250555Y-116743452D01*
X90233524Y-116729476D01*
X90219548Y-116712445D01*
X90209160Y-116693009D01*
X90202764Y-116671928D01*
X90200000Y-116643860D01*
X90200000Y-115180140D01*
X90202764Y-115152072D01*
X90209160Y-115130991D01*
X90219548Y-115111555D01*
X90233524Y-115094524D01*
X90250555Y-115080548D01*
X90269991Y-115070160D01*
X90291072Y-115063764D01*
X90319140Y-115061000D01*
X90782860Y-115061000D01*
X90810928Y-115063764D01*
X90810928Y-115063764D01*
G37*
G36*
X89540928Y-115063764D02*
G01*
X89562009Y-115070160D01*
X89581445Y-115080548D01*
X89598476Y-115094524D01*
X89612452Y-115111555D01*
X89622840Y-115130991D01*
X89629236Y-115152072D01*
X89632000Y-115180140D01*
X89632000Y-116643860D01*
X89629236Y-116671928D01*
X89622840Y-116693009D01*
X89612452Y-116712445D01*
X89598476Y-116729476D01*
X89581445Y-116743452D01*
X89562009Y-116753840D01*
X89540928Y-116760236D01*
X89512860Y-116763000D01*
X89049140Y-116763000D01*
X89021072Y-116760236D01*
X88999991Y-116753840D01*
X88980555Y-116743452D01*
X88963524Y-116729476D01*
X88949548Y-116712445D01*
X88939160Y-116693009D01*
X88932764Y-116671928D01*
X88930000Y-116643860D01*
X88930000Y-115180140D01*
X88932764Y-115152072D01*
X88939160Y-115130991D01*
X88949548Y-115111555D01*
X88963524Y-115094524D01*
X88980555Y-115080548D01*
X88999991Y-115070160D01*
X89021072Y-115063764D01*
X89049140Y-115061000D01*
X89512860Y-115061000D01*
X89540928Y-115063764D01*
X89540928Y-115063764D01*
G37*
G36*
X92080928Y-115063764D02*
G01*
X92102009Y-115070160D01*
X92121445Y-115080548D01*
X92138476Y-115094524D01*
X92152452Y-115111555D01*
X92162840Y-115130991D01*
X92169236Y-115152072D01*
X92172000Y-115180140D01*
X92172000Y-116643860D01*
X92169236Y-116671928D01*
X92162840Y-116693009D01*
X92152452Y-116712445D01*
X92138476Y-116729476D01*
X92121445Y-116743452D01*
X92102009Y-116753840D01*
X92080928Y-116760236D01*
X92052860Y-116763000D01*
X91589140Y-116763000D01*
X91561072Y-116760236D01*
X91539991Y-116753840D01*
X91520555Y-116743452D01*
X91503524Y-116729476D01*
X91489548Y-116712445D01*
X91479160Y-116693009D01*
X91472764Y-116671928D01*
X91470000Y-116643860D01*
X91470000Y-115180140D01*
X91472764Y-115152072D01*
X91479160Y-115130991D01*
X91489548Y-115111555D01*
X91503524Y-115094524D01*
X91520555Y-115080548D01*
X91539991Y-115070160D01*
X91561072Y-115063764D01*
X91589140Y-115061000D01*
X92052860Y-115061000D01*
X92080928Y-115063764D01*
X92080928Y-115063764D01*
G37*
G36*
X82645203Y-114782199D02*
G01*
X82711387Y-114788717D01*
X82881226Y-114840237D01*
X83037751Y-114923902D01*
X83057593Y-114940186D01*
X83174946Y-115036494D01*
X83256970Y-115136442D01*
X83287538Y-115173689D01*
X83371203Y-115330214D01*
X83422723Y-115500053D01*
X83440119Y-115676680D01*
X83422723Y-115853307D01*
X83371203Y-116023146D01*
X83287538Y-116179671D01*
X83258208Y-116215409D01*
X83174946Y-116316866D01*
X83073489Y-116400128D01*
X83037751Y-116429458D01*
X82881226Y-116513123D01*
X82711387Y-116564643D01*
X82645202Y-116571162D01*
X82579020Y-116577680D01*
X82490500Y-116577680D01*
X82424318Y-116571162D01*
X82358133Y-116564643D01*
X82188294Y-116513123D01*
X82031769Y-116429458D01*
X81996031Y-116400128D01*
X81894574Y-116316866D01*
X81811312Y-116215409D01*
X81781982Y-116179671D01*
X81698317Y-116023146D01*
X81646797Y-115853307D01*
X81629401Y-115676680D01*
X81646797Y-115500053D01*
X81698317Y-115330214D01*
X81781982Y-115173689D01*
X81812550Y-115136442D01*
X81894574Y-115036494D01*
X82011927Y-114940186D01*
X82031769Y-114923902D01*
X82188294Y-114840237D01*
X82358133Y-114788717D01*
X82424317Y-114782199D01*
X82490500Y-114775680D01*
X82579020Y-114775680D01*
X82645203Y-114782199D01*
X82645203Y-114782199D01*
G37*
G36*
X80105203Y-114782199D02*
G01*
X80171387Y-114788717D01*
X80341226Y-114840237D01*
X80497751Y-114923902D01*
X80517593Y-114940186D01*
X80634946Y-115036494D01*
X80716970Y-115136442D01*
X80747538Y-115173689D01*
X80831203Y-115330214D01*
X80882723Y-115500053D01*
X80900119Y-115676680D01*
X80882723Y-115853307D01*
X80831203Y-116023146D01*
X80747538Y-116179671D01*
X80718208Y-116215409D01*
X80634946Y-116316866D01*
X80533489Y-116400128D01*
X80497751Y-116429458D01*
X80341226Y-116513123D01*
X80171387Y-116564643D01*
X80105202Y-116571162D01*
X80039020Y-116577680D01*
X79950500Y-116577680D01*
X79884318Y-116571162D01*
X79818133Y-116564643D01*
X79648294Y-116513123D01*
X79491769Y-116429458D01*
X79456031Y-116400128D01*
X79354574Y-116316866D01*
X79271312Y-116215409D01*
X79241982Y-116179671D01*
X79158317Y-116023146D01*
X79106797Y-115853307D01*
X79089401Y-115676680D01*
X79106797Y-115500053D01*
X79158317Y-115330214D01*
X79241982Y-115173689D01*
X79272550Y-115136442D01*
X79354574Y-115036494D01*
X79471927Y-114940186D01*
X79491769Y-114923902D01*
X79648294Y-114840237D01*
X79818133Y-114788717D01*
X79884317Y-114782199D01*
X79950500Y-114775680D01*
X80039020Y-114775680D01*
X80105203Y-114782199D01*
X80105203Y-114782199D01*
G37*
G36*
X97421000Y-115201000D02*
G01*
X95619000Y-115201000D01*
X95619000Y-113399000D01*
X97421000Y-113399000D01*
X97421000Y-115201000D01*
X97421000Y-115201000D01*
G37*
G36*
X99170443Y-113405519D02*
G01*
X99236627Y-113412037D01*
X99406466Y-113463557D01*
X99562991Y-113547222D01*
X99598729Y-113576552D01*
X99700186Y-113659814D01*
X99783448Y-113761271D01*
X99812778Y-113797009D01*
X99896443Y-113953534D01*
X99947963Y-114123373D01*
X99965359Y-114300000D01*
X99947963Y-114476627D01*
X99896443Y-114646466D01*
X99812778Y-114802991D01*
X99783448Y-114838729D01*
X99700186Y-114940186D01*
X99598729Y-115023448D01*
X99562991Y-115052778D01*
X99406466Y-115136443D01*
X99236627Y-115187963D01*
X99170442Y-115194482D01*
X99104260Y-115201000D01*
X99015740Y-115201000D01*
X98949558Y-115194482D01*
X98883373Y-115187963D01*
X98713534Y-115136443D01*
X98557009Y-115052778D01*
X98521271Y-115023448D01*
X98419814Y-114940186D01*
X98336552Y-114838729D01*
X98307222Y-114802991D01*
X98223557Y-114646466D01*
X98172037Y-114476627D01*
X98154641Y-114300000D01*
X98172037Y-114123373D01*
X98223557Y-113953534D01*
X98307222Y-113797009D01*
X98336552Y-113761271D01*
X98419814Y-113659814D01*
X98521271Y-113576552D01*
X98557009Y-113547222D01*
X98713534Y-113463557D01*
X98883373Y-113412037D01*
X98949557Y-113405519D01*
X99015740Y-113399000D01*
X99104260Y-113399000D01*
X99170443Y-113405519D01*
X99170443Y-113405519D01*
G37*
G36*
X80105203Y-112242199D02*
G01*
X80171387Y-112248717D01*
X80341226Y-112300237D01*
X80497751Y-112383902D01*
X80517593Y-112400186D01*
X80634946Y-112496494D01*
X80716970Y-112596442D01*
X80747538Y-112633689D01*
X80831203Y-112790214D01*
X80882723Y-112960053D01*
X80900119Y-113136680D01*
X80882723Y-113313307D01*
X80831203Y-113483146D01*
X80747538Y-113639671D01*
X80731007Y-113659814D01*
X80634946Y-113776866D01*
X80533489Y-113860128D01*
X80497751Y-113889458D01*
X80341226Y-113973123D01*
X80171387Y-114024643D01*
X80105202Y-114031162D01*
X80039020Y-114037680D01*
X79950500Y-114037680D01*
X79884318Y-114031162D01*
X79818133Y-114024643D01*
X79648294Y-113973123D01*
X79491769Y-113889458D01*
X79456031Y-113860128D01*
X79354574Y-113776866D01*
X79258513Y-113659814D01*
X79241982Y-113639671D01*
X79158317Y-113483146D01*
X79106797Y-113313307D01*
X79089401Y-113136680D01*
X79106797Y-112960053D01*
X79158317Y-112790214D01*
X79241982Y-112633689D01*
X79272550Y-112596442D01*
X79354574Y-112496494D01*
X79471927Y-112400186D01*
X79491769Y-112383902D01*
X79648294Y-112300237D01*
X79818133Y-112248717D01*
X79884317Y-112242199D01*
X79950500Y-112235680D01*
X80039020Y-112235680D01*
X80105203Y-112242199D01*
X80105203Y-112242199D01*
G37*
G36*
X82645203Y-112242199D02*
G01*
X82711387Y-112248717D01*
X82881226Y-112300237D01*
X83037751Y-112383902D01*
X83057593Y-112400186D01*
X83174946Y-112496494D01*
X83256970Y-112596442D01*
X83287538Y-112633689D01*
X83371203Y-112790214D01*
X83422723Y-112960053D01*
X83440119Y-113136680D01*
X83422723Y-113313307D01*
X83371203Y-113483146D01*
X83287538Y-113639671D01*
X83271007Y-113659814D01*
X83174946Y-113776866D01*
X83073489Y-113860128D01*
X83037751Y-113889458D01*
X82881226Y-113973123D01*
X82711387Y-114024643D01*
X82645202Y-114031162D01*
X82579020Y-114037680D01*
X82490500Y-114037680D01*
X82424318Y-114031162D01*
X82358133Y-114024643D01*
X82188294Y-113973123D01*
X82031769Y-113889458D01*
X81996031Y-113860128D01*
X81894574Y-113776866D01*
X81798513Y-113659814D01*
X81781982Y-113639671D01*
X81698317Y-113483146D01*
X81646797Y-113313307D01*
X81629401Y-113136680D01*
X81646797Y-112960053D01*
X81698317Y-112790214D01*
X81781982Y-112633689D01*
X81812550Y-112596442D01*
X81894574Y-112496494D01*
X82011927Y-112400186D01*
X82031769Y-112383902D01*
X82188294Y-112300237D01*
X82358133Y-112248717D01*
X82424317Y-112242199D01*
X82490500Y-112235680D01*
X82579020Y-112235680D01*
X82645203Y-112242199D01*
X82645203Y-112242199D01*
G37*
G36*
X96630442Y-110865518D02*
G01*
X96696627Y-110872037D01*
X96866466Y-110923557D01*
X97022991Y-111007222D01*
X97058729Y-111036552D01*
X97160186Y-111119814D01*
X97243448Y-111221271D01*
X97272778Y-111257009D01*
X97356443Y-111413534D01*
X97407963Y-111583373D01*
X97425359Y-111760000D01*
X97407963Y-111936627D01*
X97356443Y-112106466D01*
X97272778Y-112262991D01*
X97243448Y-112298729D01*
X97160186Y-112400186D01*
X97058729Y-112483448D01*
X97022991Y-112512778D01*
X96866466Y-112596443D01*
X96696627Y-112647963D01*
X96630442Y-112654482D01*
X96564260Y-112661000D01*
X96475740Y-112661000D01*
X96409558Y-112654482D01*
X96343373Y-112647963D01*
X96173534Y-112596443D01*
X96017009Y-112512778D01*
X95981271Y-112483448D01*
X95879814Y-112400186D01*
X95796552Y-112298729D01*
X95767222Y-112262991D01*
X95683557Y-112106466D01*
X95632037Y-111936627D01*
X95614641Y-111760000D01*
X95632037Y-111583373D01*
X95683557Y-111413534D01*
X95767222Y-111257009D01*
X95796552Y-111221271D01*
X95879814Y-111119814D01*
X95981271Y-111036552D01*
X96017009Y-111007222D01*
X96173534Y-110923557D01*
X96343373Y-110872037D01*
X96409558Y-110865518D01*
X96475740Y-110859000D01*
X96564260Y-110859000D01*
X96630442Y-110865518D01*
X96630442Y-110865518D01*
G37*
G36*
X99170442Y-110865518D02*
G01*
X99236627Y-110872037D01*
X99406466Y-110923557D01*
X99562991Y-111007222D01*
X99598729Y-111036552D01*
X99700186Y-111119814D01*
X99783448Y-111221271D01*
X99812778Y-111257009D01*
X99896443Y-111413534D01*
X99947963Y-111583373D01*
X99965359Y-111760000D01*
X99947963Y-111936627D01*
X99896443Y-112106466D01*
X99812778Y-112262991D01*
X99783448Y-112298729D01*
X99700186Y-112400186D01*
X99598729Y-112483448D01*
X99562991Y-112512778D01*
X99406466Y-112596443D01*
X99236627Y-112647963D01*
X99170442Y-112654482D01*
X99104260Y-112661000D01*
X99015740Y-112661000D01*
X98949558Y-112654482D01*
X98883373Y-112647963D01*
X98713534Y-112596443D01*
X98557009Y-112512778D01*
X98521271Y-112483448D01*
X98419814Y-112400186D01*
X98336552Y-112298729D01*
X98307222Y-112262991D01*
X98223557Y-112106466D01*
X98172037Y-111936627D01*
X98154641Y-111760000D01*
X98172037Y-111583373D01*
X98223557Y-111413534D01*
X98307222Y-111257009D01*
X98336552Y-111221271D01*
X98419814Y-111119814D01*
X98521271Y-111036552D01*
X98557009Y-111007222D01*
X98713534Y-110923557D01*
X98883373Y-110872037D01*
X98949558Y-110865518D01*
X99015740Y-110859000D01*
X99104260Y-110859000D01*
X99170442Y-110865518D01*
X99170442Y-110865518D01*
G37*
G36*
X82645202Y-109702198D02*
G01*
X82711387Y-109708717D01*
X82881226Y-109760237D01*
X83037751Y-109843902D01*
X83057593Y-109860186D01*
X83174946Y-109956494D01*
X83256970Y-110056442D01*
X83287538Y-110093689D01*
X83371203Y-110250214D01*
X83422723Y-110420053D01*
X83440119Y-110596680D01*
X83422723Y-110773307D01*
X83371203Y-110943146D01*
X83287538Y-111099671D01*
X83271007Y-111119814D01*
X83174946Y-111236866D01*
X83073489Y-111320128D01*
X83037751Y-111349458D01*
X82881226Y-111433123D01*
X82711387Y-111484643D01*
X82645203Y-111491161D01*
X82579020Y-111497680D01*
X82490500Y-111497680D01*
X82424317Y-111491161D01*
X82358133Y-111484643D01*
X82188294Y-111433123D01*
X82031769Y-111349458D01*
X81996031Y-111320128D01*
X81894574Y-111236866D01*
X81798513Y-111119814D01*
X81781982Y-111099671D01*
X81698317Y-110943146D01*
X81646797Y-110773307D01*
X81629401Y-110596680D01*
X81646797Y-110420053D01*
X81698317Y-110250214D01*
X81781982Y-110093689D01*
X81812550Y-110056442D01*
X81894574Y-109956494D01*
X82011927Y-109860186D01*
X82031769Y-109843902D01*
X82188294Y-109760237D01*
X82358133Y-109708717D01*
X82424318Y-109702198D01*
X82490500Y-109695680D01*
X82579020Y-109695680D01*
X82645202Y-109702198D01*
X82645202Y-109702198D01*
G37*
G36*
X80105202Y-109702198D02*
G01*
X80171387Y-109708717D01*
X80341226Y-109760237D01*
X80497751Y-109843902D01*
X80517593Y-109860186D01*
X80634946Y-109956494D01*
X80716970Y-110056442D01*
X80747538Y-110093689D01*
X80831203Y-110250214D01*
X80882723Y-110420053D01*
X80900119Y-110596680D01*
X80882723Y-110773307D01*
X80831203Y-110943146D01*
X80747538Y-111099671D01*
X80731007Y-111119814D01*
X80634946Y-111236866D01*
X80533489Y-111320128D01*
X80497751Y-111349458D01*
X80341226Y-111433123D01*
X80171387Y-111484643D01*
X80105203Y-111491161D01*
X80039020Y-111497680D01*
X79950500Y-111497680D01*
X79884317Y-111491161D01*
X79818133Y-111484643D01*
X79648294Y-111433123D01*
X79491769Y-111349458D01*
X79456031Y-111320128D01*
X79354574Y-111236866D01*
X79258513Y-111119814D01*
X79241982Y-111099671D01*
X79158317Y-110943146D01*
X79106797Y-110773307D01*
X79089401Y-110596680D01*
X79106797Y-110420053D01*
X79158317Y-110250214D01*
X79241982Y-110093689D01*
X79272550Y-110056442D01*
X79354574Y-109956494D01*
X79471927Y-109860186D01*
X79491769Y-109843902D01*
X79648294Y-109760237D01*
X79818133Y-109708717D01*
X79884318Y-109702198D01*
X79950500Y-109695680D01*
X80039020Y-109695680D01*
X80105202Y-109702198D01*
X80105202Y-109702198D01*
G37*
G36*
X99170443Y-108325519D02*
G01*
X99236627Y-108332037D01*
X99406466Y-108383557D01*
X99406468Y-108383558D01*
X99443114Y-108403146D01*
X99562991Y-108467222D01*
X99598729Y-108496552D01*
X99700186Y-108579814D01*
X99783448Y-108681271D01*
X99812778Y-108717009D01*
X99896443Y-108873534D01*
X99947963Y-109043373D01*
X99965359Y-109220000D01*
X99947963Y-109396627D01*
X99896443Y-109566466D01*
X99812778Y-109722991D01*
X99783448Y-109758729D01*
X99700186Y-109860186D01*
X99598729Y-109943448D01*
X99562991Y-109972778D01*
X99406466Y-110056443D01*
X99236627Y-110107963D01*
X99170443Y-110114481D01*
X99104260Y-110121000D01*
X99015740Y-110121000D01*
X98949557Y-110114481D01*
X98883373Y-110107963D01*
X98713534Y-110056443D01*
X98557009Y-109972778D01*
X98521271Y-109943448D01*
X98419814Y-109860186D01*
X98336552Y-109758729D01*
X98307222Y-109722991D01*
X98223557Y-109566466D01*
X98172037Y-109396627D01*
X98154641Y-109220000D01*
X98172037Y-109043373D01*
X98223557Y-108873534D01*
X98307222Y-108717009D01*
X98336552Y-108681271D01*
X98419814Y-108579814D01*
X98521271Y-108496552D01*
X98557009Y-108467222D01*
X98676886Y-108403146D01*
X98713532Y-108383558D01*
X98713534Y-108383557D01*
X98883373Y-108332037D01*
X98949557Y-108325519D01*
X99015740Y-108319000D01*
X99104260Y-108319000D01*
X99170443Y-108325519D01*
X99170443Y-108325519D01*
G37*
G36*
X96630443Y-108325519D02*
G01*
X96696627Y-108332037D01*
X96866466Y-108383557D01*
X96866468Y-108383558D01*
X96903114Y-108403146D01*
X97022991Y-108467222D01*
X97058729Y-108496552D01*
X97160186Y-108579814D01*
X97243448Y-108681271D01*
X97272778Y-108717009D01*
X97356443Y-108873534D01*
X97407963Y-109043373D01*
X97425359Y-109220000D01*
X97407963Y-109396627D01*
X97356443Y-109566466D01*
X97272778Y-109722991D01*
X97243448Y-109758729D01*
X97160186Y-109860186D01*
X97058729Y-109943448D01*
X97022991Y-109972778D01*
X96866466Y-110056443D01*
X96696627Y-110107963D01*
X96630443Y-110114481D01*
X96564260Y-110121000D01*
X96475740Y-110121000D01*
X96409557Y-110114481D01*
X96343373Y-110107963D01*
X96173534Y-110056443D01*
X96017009Y-109972778D01*
X95981271Y-109943448D01*
X95879814Y-109860186D01*
X95796552Y-109758729D01*
X95767222Y-109722991D01*
X95683557Y-109566466D01*
X95632037Y-109396627D01*
X95614641Y-109220000D01*
X95632037Y-109043373D01*
X95683557Y-108873534D01*
X95767222Y-108717009D01*
X95796552Y-108681271D01*
X95879814Y-108579814D01*
X95981271Y-108496552D01*
X96017009Y-108467222D01*
X96136886Y-108403146D01*
X96173532Y-108383558D01*
X96173534Y-108383557D01*
X96343373Y-108332037D01*
X96409557Y-108325519D01*
X96475740Y-108319000D01*
X96564260Y-108319000D01*
X96630443Y-108325519D01*
X96630443Y-108325519D01*
G37*
G36*
X93350928Y-107863764D02*
G01*
X93372009Y-107870160D01*
X93391445Y-107880548D01*
X93408476Y-107894524D01*
X93422452Y-107911555D01*
X93432840Y-107930991D01*
X93439236Y-107952072D01*
X93442000Y-107980140D01*
X93442000Y-109443860D01*
X93439236Y-109471928D01*
X93432840Y-109493009D01*
X93422452Y-109512445D01*
X93408476Y-109529476D01*
X93391445Y-109543452D01*
X93372009Y-109553840D01*
X93350928Y-109560236D01*
X93322860Y-109563000D01*
X92859140Y-109563000D01*
X92831072Y-109560236D01*
X92809991Y-109553840D01*
X92790555Y-109543452D01*
X92773524Y-109529476D01*
X92759548Y-109512445D01*
X92749160Y-109493009D01*
X92742764Y-109471928D01*
X92740000Y-109443860D01*
X92740000Y-107980140D01*
X92742764Y-107952072D01*
X92749160Y-107930991D01*
X92759548Y-107911555D01*
X92773524Y-107894524D01*
X92790555Y-107880548D01*
X92809991Y-107870160D01*
X92831072Y-107863764D01*
X92859140Y-107861000D01*
X93322860Y-107861000D01*
X93350928Y-107863764D01*
X93350928Y-107863764D01*
G37*
G36*
X92080928Y-107863764D02*
G01*
X92102009Y-107870160D01*
X92121445Y-107880548D01*
X92138476Y-107894524D01*
X92152452Y-107911555D01*
X92162840Y-107930991D01*
X92169236Y-107952072D01*
X92172000Y-107980140D01*
X92172000Y-109443860D01*
X92169236Y-109471928D01*
X92162840Y-109493009D01*
X92152452Y-109512445D01*
X92138476Y-109529476D01*
X92121445Y-109543452D01*
X92102009Y-109553840D01*
X92080928Y-109560236D01*
X92052860Y-109563000D01*
X91589140Y-109563000D01*
X91561072Y-109560236D01*
X91539991Y-109553840D01*
X91520555Y-109543452D01*
X91503524Y-109529476D01*
X91489548Y-109512445D01*
X91479160Y-109493009D01*
X91472764Y-109471928D01*
X91470000Y-109443860D01*
X91470000Y-107980140D01*
X91472764Y-107952072D01*
X91479160Y-107930991D01*
X91489548Y-107911555D01*
X91503524Y-107894524D01*
X91520555Y-107880548D01*
X91539991Y-107870160D01*
X91561072Y-107863764D01*
X91589140Y-107861000D01*
X92052860Y-107861000D01*
X92080928Y-107863764D01*
X92080928Y-107863764D01*
G37*
G36*
X90810928Y-107863764D02*
G01*
X90832009Y-107870160D01*
X90851445Y-107880548D01*
X90868476Y-107894524D01*
X90882452Y-107911555D01*
X90892840Y-107930991D01*
X90899236Y-107952072D01*
X90902000Y-107980140D01*
X90902000Y-109443860D01*
X90899236Y-109471928D01*
X90892840Y-109493009D01*
X90882452Y-109512445D01*
X90868476Y-109529476D01*
X90851445Y-109543452D01*
X90832009Y-109553840D01*
X90810928Y-109560236D01*
X90782860Y-109563000D01*
X90319140Y-109563000D01*
X90291072Y-109560236D01*
X90269991Y-109553840D01*
X90250555Y-109543452D01*
X90233524Y-109529476D01*
X90219548Y-109512445D01*
X90209160Y-109493009D01*
X90202764Y-109471928D01*
X90200000Y-109443860D01*
X90200000Y-107980140D01*
X90202764Y-107952072D01*
X90209160Y-107930991D01*
X90219548Y-107911555D01*
X90233524Y-107894524D01*
X90250555Y-107880548D01*
X90269991Y-107870160D01*
X90291072Y-107863764D01*
X90319140Y-107861000D01*
X90782860Y-107861000D01*
X90810928Y-107863764D01*
X90810928Y-107863764D01*
G37*
G36*
X89540928Y-107863764D02*
G01*
X89562009Y-107870160D01*
X89581445Y-107880548D01*
X89598476Y-107894524D01*
X89612452Y-107911555D01*
X89622840Y-107930991D01*
X89629236Y-107952072D01*
X89632000Y-107980140D01*
X89632000Y-109443860D01*
X89629236Y-109471928D01*
X89622840Y-109493009D01*
X89612452Y-109512445D01*
X89598476Y-109529476D01*
X89581445Y-109543452D01*
X89562009Y-109553840D01*
X89540928Y-109560236D01*
X89512860Y-109563000D01*
X89049140Y-109563000D01*
X89021072Y-109560236D01*
X88999991Y-109553840D01*
X88980555Y-109543452D01*
X88963524Y-109529476D01*
X88949548Y-109512445D01*
X88939160Y-109493009D01*
X88932764Y-109471928D01*
X88930000Y-109443860D01*
X88930000Y-107980140D01*
X88932764Y-107952072D01*
X88939160Y-107930991D01*
X88949548Y-107911555D01*
X88963524Y-107894524D01*
X88980555Y-107880548D01*
X88999991Y-107870160D01*
X89021072Y-107863764D01*
X89049140Y-107861000D01*
X89512860Y-107861000D01*
X89540928Y-107863764D01*
X89540928Y-107863764D01*
G37*
G36*
X80895760Y-108957680D02*
G01*
X79093760Y-108957680D01*
X79093760Y-107155680D01*
X80895760Y-107155680D01*
X80895760Y-108957680D01*
X80895760Y-108957680D01*
G37*
G36*
X82645203Y-107162199D02*
G01*
X82711387Y-107168717D01*
X82881226Y-107220237D01*
X83037751Y-107303902D01*
X83073489Y-107333232D01*
X83174946Y-107416494D01*
X83258208Y-107517951D01*
X83287538Y-107553689D01*
X83371203Y-107710214D01*
X83422723Y-107880053D01*
X83440119Y-108056680D01*
X83422723Y-108233307D01*
X83371203Y-108403146D01*
X83287538Y-108559671D01*
X83271007Y-108579814D01*
X83174946Y-108696866D01*
X83073489Y-108780128D01*
X83037751Y-108809458D01*
X82881226Y-108893123D01*
X82711387Y-108944643D01*
X82645203Y-108951161D01*
X82579020Y-108957680D01*
X82490500Y-108957680D01*
X82424317Y-108951161D01*
X82358133Y-108944643D01*
X82188294Y-108893123D01*
X82031769Y-108809458D01*
X81996031Y-108780128D01*
X81894574Y-108696866D01*
X81798513Y-108579814D01*
X81781982Y-108559671D01*
X81698317Y-108403146D01*
X81646797Y-108233307D01*
X81629401Y-108056680D01*
X81646797Y-107880053D01*
X81698317Y-107710214D01*
X81781982Y-107553689D01*
X81811312Y-107517951D01*
X81894574Y-107416494D01*
X81996031Y-107333232D01*
X82031769Y-107303902D01*
X82188294Y-107220237D01*
X82358133Y-107168717D01*
X82424317Y-107162199D01*
X82490500Y-107155680D01*
X82579020Y-107155680D01*
X82645203Y-107162199D01*
X82645203Y-107162199D01*
G37*
G36*
X87833468Y-107591565D02*
G01*
X87872138Y-107603296D01*
X87907777Y-107622346D01*
X87939017Y-107647983D01*
X87964654Y-107679223D01*
X87983704Y-107714862D01*
X87995435Y-107753532D01*
X88000000Y-107799888D01*
X88000000Y-108451112D01*
X87995435Y-108497468D01*
X87983704Y-108536138D01*
X87964654Y-108571777D01*
X87939017Y-108603017D01*
X87907777Y-108628654D01*
X87872138Y-108647704D01*
X87833468Y-108659435D01*
X87787112Y-108664000D01*
X86710888Y-108664000D01*
X86664532Y-108659435D01*
X86625862Y-108647704D01*
X86590223Y-108628654D01*
X86558983Y-108603017D01*
X86533346Y-108571777D01*
X86514296Y-108536138D01*
X86502565Y-108497468D01*
X86498000Y-108451112D01*
X86498000Y-107799888D01*
X86502565Y-107753532D01*
X86514296Y-107714862D01*
X86533346Y-107679223D01*
X86558983Y-107647983D01*
X86590223Y-107622346D01*
X86625862Y-107603296D01*
X86664532Y-107591565D01*
X86710888Y-107587000D01*
X87787112Y-107587000D01*
X87833468Y-107591565D01*
X87833468Y-107591565D01*
G37*
G36*
X85928468Y-107591565D02*
G01*
X85967138Y-107603296D01*
X86002777Y-107622346D01*
X86034017Y-107647983D01*
X86059654Y-107679223D01*
X86078704Y-107714862D01*
X86090435Y-107753532D01*
X86095000Y-107799888D01*
X86095000Y-108451112D01*
X86090435Y-108497468D01*
X86078704Y-108536138D01*
X86059654Y-108571777D01*
X86034017Y-108603017D01*
X86002777Y-108628654D01*
X85967138Y-108647704D01*
X85928468Y-108659435D01*
X85882112Y-108664000D01*
X84805888Y-108664000D01*
X84759532Y-108659435D01*
X84720862Y-108647704D01*
X84685223Y-108628654D01*
X84653983Y-108603017D01*
X84628346Y-108571777D01*
X84609296Y-108536138D01*
X84597565Y-108497468D01*
X84593000Y-108451112D01*
X84593000Y-107799888D01*
X84597565Y-107753532D01*
X84609296Y-107714862D01*
X84628346Y-107679223D01*
X84653983Y-107647983D01*
X84685223Y-107622346D01*
X84720862Y-107603296D01*
X84759532Y-107591565D01*
X84805888Y-107587000D01*
X85882112Y-107587000D01*
X85928468Y-107591565D01*
X85928468Y-107591565D01*
G37*
G36*
X87833468Y-105716565D02*
G01*
X87872138Y-105728296D01*
X87907777Y-105747346D01*
X87939017Y-105772983D01*
X87964654Y-105804223D01*
X87983704Y-105839862D01*
X87995435Y-105878532D01*
X88000000Y-105924888D01*
X88000000Y-106576112D01*
X87995435Y-106622468D01*
X87983704Y-106661138D01*
X87964654Y-106696777D01*
X87939017Y-106728017D01*
X87907777Y-106753654D01*
X87872138Y-106772704D01*
X87833468Y-106784435D01*
X87787112Y-106789000D01*
X86710888Y-106789000D01*
X86664532Y-106784435D01*
X86625862Y-106772704D01*
X86590223Y-106753654D01*
X86558983Y-106728017D01*
X86533346Y-106696777D01*
X86514296Y-106661138D01*
X86502565Y-106622468D01*
X86498000Y-106576112D01*
X86498000Y-105924888D01*
X86502565Y-105878532D01*
X86514296Y-105839862D01*
X86533346Y-105804223D01*
X86558983Y-105772983D01*
X86590223Y-105747346D01*
X86625862Y-105728296D01*
X86664532Y-105716565D01*
X86710888Y-105712000D01*
X87787112Y-105712000D01*
X87833468Y-105716565D01*
X87833468Y-105716565D01*
G37*
G36*
X85928468Y-105716565D02*
G01*
X85967138Y-105728296D01*
X86002777Y-105747346D01*
X86034017Y-105772983D01*
X86059654Y-105804223D01*
X86078704Y-105839862D01*
X86090435Y-105878532D01*
X86095000Y-105924888D01*
X86095000Y-106576112D01*
X86090435Y-106622468D01*
X86078704Y-106661138D01*
X86059654Y-106696777D01*
X86034017Y-106728017D01*
X86002777Y-106753654D01*
X85967138Y-106772704D01*
X85928468Y-106784435D01*
X85882112Y-106789000D01*
X84805888Y-106789000D01*
X84759532Y-106784435D01*
X84720862Y-106772704D01*
X84685223Y-106753654D01*
X84653983Y-106728017D01*
X84628346Y-106696777D01*
X84609296Y-106661138D01*
X84597565Y-106622468D01*
X84593000Y-106576112D01*
X84593000Y-105924888D01*
X84597565Y-105878532D01*
X84609296Y-105839862D01*
X84628346Y-105804223D01*
X84653983Y-105772983D01*
X84685223Y-105747346D01*
X84720862Y-105728296D01*
X84759532Y-105716565D01*
X84805888Y-105712000D01*
X85882112Y-105712000D01*
X85928468Y-105716565D01*
X85928468Y-105716565D01*
G37*
M02*
