%FSLAX45Y45*%
G04 Gerber Fmt 4.5, Leading zero omitted, Abs format (unit mm)*
G04 Created by KiCad (PCBNEW 5.1.2+dfsg1-1) date 2019-06-06 20:10:44*
%MOMM*%
%LPD*%
G04 APERTURE LIST*
%ADD10C,0.200000*%
%ADD11C,0.300000*%
G04 APERTURE END LIST*
D10*
X7949476Y-10755668D02*
X8049476Y-10855668D01*
X8049476Y-10755668D02*
X7949476Y-10855668D01*
X7949476Y-11009668D02*
X8049476Y-11109668D01*
X8049476Y-11009668D02*
X7949476Y-11109668D01*
X7949476Y-11263668D02*
X8049476Y-11363668D01*
X8049476Y-11263668D02*
X7949476Y-11363668D01*
X7949476Y-11517668D02*
X8049476Y-11617668D01*
X8049476Y-11517668D02*
X7949476Y-11617668D01*
X8203476Y-10755668D02*
X8303476Y-10855668D01*
X8303476Y-10755668D02*
X8203476Y-10855668D01*
X8203476Y-11009668D02*
X8303476Y-11109668D01*
X8303476Y-11009668D02*
X8203476Y-11109668D01*
X8203476Y-11263668D02*
X8303476Y-11363668D01*
X8303476Y-11263668D02*
X8203476Y-11363668D01*
X8203476Y-11517668D02*
X8303476Y-11617668D01*
X8303476Y-11517668D02*
X8203476Y-11617668D01*
X9602000Y-10872000D02*
X9702000Y-10972000D01*
X9702000Y-10872000D02*
X9602000Y-10972000D01*
X9602000Y-11126000D02*
X9702000Y-11226000D01*
X9702000Y-11126000D02*
X9602000Y-11226000D01*
X9602000Y-11380000D02*
X9702000Y-11480000D01*
X9702000Y-11380000D02*
X9602000Y-11480000D01*
X9856000Y-10872000D02*
X9956000Y-10972000D01*
X9956000Y-10872000D02*
X9856000Y-10972000D01*
X9856000Y-11126000D02*
X9956000Y-11226000D01*
X9956000Y-11126000D02*
X9856000Y-11226000D01*
X9856000Y-11380000D02*
X9956000Y-11480000D01*
X9956000Y-11380000D02*
X9856000Y-11480000D01*
D11*
X286429Y-465714D02*
X286429Y-165714D01*
X357857Y-165714D01*
X400714Y-180000D01*
X429286Y-208571D01*
X443571Y-237143D01*
X457857Y-294286D01*
X457857Y-337143D01*
X443571Y-394286D01*
X429286Y-422857D01*
X400714Y-451428D01*
X357857Y-465714D01*
X286429Y-465714D01*
X586429Y-465714D02*
X586429Y-265714D01*
X586429Y-322857D02*
X600714Y-294286D01*
X615000Y-280000D01*
X643571Y-265714D01*
X672143Y-265714D01*
X772143Y-465714D02*
X772143Y-265714D01*
X772143Y-165714D02*
X757857Y-180000D01*
X772143Y-194286D01*
X786428Y-180000D01*
X772143Y-165714D01*
X772143Y-194286D01*
X957857Y-465714D02*
X929286Y-451428D01*
X915000Y-422857D01*
X915000Y-165714D01*
X1115000Y-465714D02*
X1086429Y-451428D01*
X1072143Y-422857D01*
X1072143Y-165714D01*
X1457857Y-465714D02*
X1457857Y-165714D01*
X1557857Y-380000D01*
X1657857Y-165714D01*
X1657857Y-465714D01*
X1929286Y-465714D02*
X1929286Y-308571D01*
X1915000Y-280000D01*
X1886428Y-265714D01*
X1829286Y-265714D01*
X1800714Y-280000D01*
X1929286Y-451428D02*
X1900714Y-465714D01*
X1829286Y-465714D01*
X1800714Y-451428D01*
X1786428Y-422857D01*
X1786428Y-394286D01*
X1800714Y-365714D01*
X1829286Y-351428D01*
X1900714Y-351428D01*
X1929286Y-337143D01*
X2072143Y-265714D02*
X2072143Y-565714D01*
X2072143Y-280000D02*
X2100714Y-265714D01*
X2157857Y-265714D01*
X2186429Y-280000D01*
X2200714Y-294286D01*
X2215000Y-322857D01*
X2215000Y-408571D01*
X2200714Y-437143D01*
X2186429Y-451428D01*
X2157857Y-465714D01*
X2100714Y-465714D01*
X2072143Y-451428D01*
X2343571Y-437143D02*
X2357857Y-451428D01*
X2343571Y-465714D01*
X2329286Y-451428D01*
X2343571Y-437143D01*
X2343571Y-465714D01*
X2343571Y-280000D02*
X2357857Y-294286D01*
X2343571Y-308571D01*
X2329286Y-294286D01*
X2343571Y-280000D01*
X2343571Y-308571D01*
X-100000Y-910000D02*
X0Y-1010000D01*
X0Y-910000D02*
X-100000Y-1010000D01*
X443571Y-1095714D02*
X272143Y-1095714D01*
X357857Y-1095714D02*
X357857Y-795714D01*
X329286Y-838571D01*
X300714Y-867143D01*
X272143Y-881428D01*
X572143Y-1067143D02*
X586429Y-1081429D01*
X572143Y-1095714D01*
X557857Y-1081429D01*
X572143Y-1067143D01*
X572143Y-1095714D01*
X772143Y-795714D02*
X800714Y-795714D01*
X829286Y-810000D01*
X843571Y-824286D01*
X857857Y-852857D01*
X872143Y-910000D01*
X872143Y-981428D01*
X857857Y-1038571D01*
X843571Y-1067143D01*
X829286Y-1081429D01*
X800714Y-1095714D01*
X772143Y-1095714D01*
X743571Y-1081429D01*
X729286Y-1067143D01*
X715000Y-1038571D01*
X700714Y-981428D01*
X700714Y-910000D01*
X715000Y-852857D01*
X729286Y-824286D01*
X743571Y-810000D01*
X772143Y-795714D01*
X1057857Y-795714D02*
X1086429Y-795714D01*
X1115000Y-810000D01*
X1129286Y-824286D01*
X1143571Y-852857D01*
X1157857Y-910000D01*
X1157857Y-981428D01*
X1143571Y-1038571D01*
X1129286Y-1067143D01*
X1115000Y-1081429D01*
X1086429Y-1095714D01*
X1057857Y-1095714D01*
X1029286Y-1081429D01*
X1015000Y-1067143D01*
X1000714Y-1038571D01*
X986428Y-981428D01*
X986428Y-910000D01*
X1000714Y-852857D01*
X1015000Y-824286D01*
X1029286Y-810000D01*
X1057857Y-795714D01*
X1286429Y-1095714D02*
X1286429Y-895714D01*
X1286429Y-924286D02*
X1300714Y-910000D01*
X1329286Y-895714D01*
X1372143Y-895714D01*
X1400714Y-910000D01*
X1415000Y-938571D01*
X1415000Y-1095714D01*
X1415000Y-938571D02*
X1429286Y-910000D01*
X1457857Y-895714D01*
X1500714Y-895714D01*
X1529286Y-910000D01*
X1543571Y-938571D01*
X1543571Y-1095714D01*
X1686428Y-1095714D02*
X1686428Y-895714D01*
X1686428Y-924286D02*
X1700714Y-910000D01*
X1729286Y-895714D01*
X1772143Y-895714D01*
X1800714Y-910000D01*
X1815000Y-938571D01*
X1815000Y-1095714D01*
X1815000Y-938571D02*
X1829286Y-910000D01*
X1857857Y-895714D01*
X1900714Y-895714D01*
X1929286Y-910000D01*
X1943571Y-938571D01*
X1943571Y-1095714D01*
X2529286Y-781428D02*
X2272143Y-1167143D01*
X2915000Y-795714D02*
X2943571Y-795714D01*
X2972143Y-810000D01*
X2986428Y-824286D01*
X3000714Y-852857D01*
X3015000Y-910000D01*
X3015000Y-981428D01*
X3000714Y-1038571D01*
X2986428Y-1067143D01*
X2972143Y-1081429D01*
X2943571Y-1095714D01*
X2915000Y-1095714D01*
X2886428Y-1081429D01*
X2872143Y-1067143D01*
X2857857Y-1038571D01*
X2843571Y-981428D01*
X2843571Y-910000D01*
X2857857Y-852857D01*
X2872143Y-824286D01*
X2886428Y-810000D01*
X2915000Y-795714D01*
X3143571Y-1067143D02*
X3157857Y-1081429D01*
X3143571Y-1095714D01*
X3129286Y-1081429D01*
X3143571Y-1067143D01*
X3143571Y-1095714D01*
X3343571Y-795714D02*
X3372143Y-795714D01*
X3400714Y-810000D01*
X3415000Y-824286D01*
X3429286Y-852857D01*
X3443571Y-910000D01*
X3443571Y-981428D01*
X3429286Y-1038571D01*
X3415000Y-1067143D01*
X3400714Y-1081429D01*
X3372143Y-1095714D01*
X3343571Y-1095714D01*
X3315000Y-1081429D01*
X3300714Y-1067143D01*
X3286428Y-1038571D01*
X3272143Y-981428D01*
X3272143Y-910000D01*
X3286428Y-852857D01*
X3300714Y-824286D01*
X3315000Y-810000D01*
X3343571Y-795714D01*
X3543571Y-795714D02*
X3729286Y-795714D01*
X3629286Y-910000D01*
X3672143Y-910000D01*
X3700714Y-924286D01*
X3715000Y-938571D01*
X3729286Y-967143D01*
X3729286Y-1038571D01*
X3715000Y-1067143D01*
X3700714Y-1081429D01*
X3672143Y-1095714D01*
X3586428Y-1095714D01*
X3557857Y-1081429D01*
X3543571Y-1067143D01*
X3872143Y-1095714D02*
X3929286Y-1095714D01*
X3957857Y-1081429D01*
X3972143Y-1067143D01*
X4000714Y-1024286D01*
X4015000Y-967143D01*
X4015000Y-852857D01*
X4000714Y-824286D01*
X3986428Y-810000D01*
X3957857Y-795714D01*
X3900714Y-795714D01*
X3872143Y-810000D01*
X3857857Y-824286D01*
X3843571Y-852857D01*
X3843571Y-924286D01*
X3857857Y-952857D01*
X3872143Y-967143D01*
X3900714Y-981428D01*
X3957857Y-981428D01*
X3986428Y-967143D01*
X4000714Y-952857D01*
X4015000Y-924286D01*
X4129286Y-795714D02*
X4129286Y-852857D01*
X4243571Y-795714D02*
X4243571Y-852857D01*
X4686429Y-1210000D02*
X4672143Y-1195714D01*
X4643571Y-1152857D01*
X4629286Y-1124286D01*
X4615000Y-1081429D01*
X4600714Y-1010000D01*
X4600714Y-952857D01*
X4615000Y-881428D01*
X4629286Y-838571D01*
X4643571Y-810000D01*
X4672143Y-767143D01*
X4686429Y-752857D01*
X4957857Y-1095714D02*
X4786429Y-1095714D01*
X4872143Y-1095714D02*
X4872143Y-795714D01*
X4843571Y-838571D01*
X4815000Y-867143D01*
X4786429Y-881428D01*
X5215000Y-895714D02*
X5215000Y-1095714D01*
X5143571Y-781428D02*
X5072143Y-995714D01*
X5257857Y-995714D01*
X5600714Y-1095714D02*
X5600714Y-795714D01*
X5729286Y-1095714D02*
X5729286Y-938571D01*
X5715000Y-910000D01*
X5686428Y-895714D01*
X5643571Y-895714D01*
X5615000Y-910000D01*
X5600714Y-924286D01*
X5915000Y-1095714D02*
X5886428Y-1081429D01*
X5872143Y-1067143D01*
X5857857Y-1038571D01*
X5857857Y-952857D01*
X5872143Y-924286D01*
X5886428Y-910000D01*
X5915000Y-895714D01*
X5957857Y-895714D01*
X5986428Y-910000D01*
X6000714Y-924286D01*
X6015000Y-952857D01*
X6015000Y-1038571D01*
X6000714Y-1067143D01*
X5986428Y-1081429D01*
X5957857Y-1095714D01*
X5915000Y-1095714D01*
X6186428Y-1095714D02*
X6157857Y-1081429D01*
X6143571Y-1052857D01*
X6143571Y-795714D01*
X6415000Y-1081429D02*
X6386428Y-1095714D01*
X6329286Y-1095714D01*
X6300714Y-1081429D01*
X6286428Y-1052857D01*
X6286428Y-938571D01*
X6300714Y-910000D01*
X6329286Y-895714D01*
X6386428Y-895714D01*
X6415000Y-910000D01*
X6429286Y-938571D01*
X6429286Y-967143D01*
X6286428Y-995714D01*
X6543571Y-1081429D02*
X6572143Y-1095714D01*
X6629286Y-1095714D01*
X6657857Y-1081429D01*
X6672143Y-1052857D01*
X6672143Y-1038571D01*
X6657857Y-1010000D01*
X6629286Y-995714D01*
X6586428Y-995714D01*
X6557857Y-981428D01*
X6543571Y-952857D01*
X6543571Y-938571D01*
X6557857Y-910000D01*
X6586428Y-895714D01*
X6629286Y-895714D01*
X6657857Y-910000D01*
X6772143Y-1210000D02*
X6786428Y-1195714D01*
X6815000Y-1152857D01*
X6829286Y-1124286D01*
X6843571Y-1081429D01*
X6857857Y-1010000D01*
X6857857Y-952857D01*
X6843571Y-881428D01*
X6829286Y-838571D01*
X6815000Y-810000D01*
X6786428Y-767143D01*
X6772143Y-752857D01*
M02*
