G04 #@! TF.GenerationSoftware,KiCad,Pcbnew,5.1.2-1.fc30*
G04 #@! TF.CreationDate,2019-06-07T00:12:30+03:00*
G04 #@! TF.ProjectId,kicad_spi_nor_opi,6b696361-645f-4737-9069-5f6e6f725f6f,rev?*
G04 #@! TF.SameCoordinates,Original*
G04 #@! TF.FileFunction,Paste,Top*
G04 #@! TF.FilePolarity,Positive*
%FSLAX46Y46*%
G04 Gerber Fmt 4.6, Leading zero omitted, Abs format (unit mm)*
G04 Created by KiCad (PCBNEW 5.1.2-1.fc30) date 2019-06-07 00:12:30*
%MOMM*%
%LPD*%
G04 APERTURE LIST*
%ADD10C,0.100000*%
%ADD11C,0.975000*%
%ADD12C,0.600000*%
G04 APERTURE END LIST*
D10*
G36*
X87729142Y-105764174D02*
G01*
X87752803Y-105767684D01*
X87776007Y-105773496D01*
X87798529Y-105781554D01*
X87820153Y-105791782D01*
X87840670Y-105804079D01*
X87859883Y-105818329D01*
X87877607Y-105834393D01*
X87893671Y-105852117D01*
X87907921Y-105871330D01*
X87920218Y-105891847D01*
X87930446Y-105913471D01*
X87938504Y-105935993D01*
X87944316Y-105959197D01*
X87947826Y-105982858D01*
X87949000Y-106006750D01*
X87949000Y-106494250D01*
X87947826Y-106518142D01*
X87944316Y-106541803D01*
X87938504Y-106565007D01*
X87930446Y-106587529D01*
X87920218Y-106609153D01*
X87907921Y-106629670D01*
X87893671Y-106648883D01*
X87877607Y-106666607D01*
X87859883Y-106682671D01*
X87840670Y-106696921D01*
X87820153Y-106709218D01*
X87798529Y-106719446D01*
X87776007Y-106727504D01*
X87752803Y-106733316D01*
X87729142Y-106736826D01*
X87705250Y-106738000D01*
X86792750Y-106738000D01*
X86768858Y-106736826D01*
X86745197Y-106733316D01*
X86721993Y-106727504D01*
X86699471Y-106719446D01*
X86677847Y-106709218D01*
X86657330Y-106696921D01*
X86638117Y-106682671D01*
X86620393Y-106666607D01*
X86604329Y-106648883D01*
X86590079Y-106629670D01*
X86577782Y-106609153D01*
X86567554Y-106587529D01*
X86559496Y-106565007D01*
X86553684Y-106541803D01*
X86550174Y-106518142D01*
X86549000Y-106494250D01*
X86549000Y-106006750D01*
X86550174Y-105982858D01*
X86553684Y-105959197D01*
X86559496Y-105935993D01*
X86567554Y-105913471D01*
X86577782Y-105891847D01*
X86590079Y-105871330D01*
X86604329Y-105852117D01*
X86620393Y-105834393D01*
X86638117Y-105818329D01*
X86657330Y-105804079D01*
X86677847Y-105791782D01*
X86699471Y-105781554D01*
X86721993Y-105773496D01*
X86745197Y-105767684D01*
X86768858Y-105764174D01*
X86792750Y-105763000D01*
X87705250Y-105763000D01*
X87729142Y-105764174D01*
X87729142Y-105764174D01*
G37*
D11*
X87249000Y-106250500D03*
D10*
G36*
X87729142Y-107639174D02*
G01*
X87752803Y-107642684D01*
X87776007Y-107648496D01*
X87798529Y-107656554D01*
X87820153Y-107666782D01*
X87840670Y-107679079D01*
X87859883Y-107693329D01*
X87877607Y-107709393D01*
X87893671Y-107727117D01*
X87907921Y-107746330D01*
X87920218Y-107766847D01*
X87930446Y-107788471D01*
X87938504Y-107810993D01*
X87944316Y-107834197D01*
X87947826Y-107857858D01*
X87949000Y-107881750D01*
X87949000Y-108369250D01*
X87947826Y-108393142D01*
X87944316Y-108416803D01*
X87938504Y-108440007D01*
X87930446Y-108462529D01*
X87920218Y-108484153D01*
X87907921Y-108504670D01*
X87893671Y-108523883D01*
X87877607Y-108541607D01*
X87859883Y-108557671D01*
X87840670Y-108571921D01*
X87820153Y-108584218D01*
X87798529Y-108594446D01*
X87776007Y-108602504D01*
X87752803Y-108608316D01*
X87729142Y-108611826D01*
X87705250Y-108613000D01*
X86792750Y-108613000D01*
X86768858Y-108611826D01*
X86745197Y-108608316D01*
X86721993Y-108602504D01*
X86699471Y-108594446D01*
X86677847Y-108584218D01*
X86657330Y-108571921D01*
X86638117Y-108557671D01*
X86620393Y-108541607D01*
X86604329Y-108523883D01*
X86590079Y-108504670D01*
X86577782Y-108484153D01*
X86567554Y-108462529D01*
X86559496Y-108440007D01*
X86553684Y-108416803D01*
X86550174Y-108393142D01*
X86549000Y-108369250D01*
X86549000Y-107881750D01*
X86550174Y-107857858D01*
X86553684Y-107834197D01*
X86559496Y-107810993D01*
X86567554Y-107788471D01*
X86577782Y-107766847D01*
X86590079Y-107746330D01*
X86604329Y-107727117D01*
X86620393Y-107709393D01*
X86638117Y-107693329D01*
X86657330Y-107679079D01*
X86677847Y-107666782D01*
X86699471Y-107656554D01*
X86721993Y-107648496D01*
X86745197Y-107642684D01*
X86768858Y-107639174D01*
X86792750Y-107638000D01*
X87705250Y-107638000D01*
X87729142Y-107639174D01*
X87729142Y-107639174D01*
G37*
D11*
X87249000Y-108125500D03*
D10*
G36*
X93255703Y-115112722D02*
G01*
X93270264Y-115114882D01*
X93284543Y-115118459D01*
X93298403Y-115123418D01*
X93311710Y-115129712D01*
X93324336Y-115137280D01*
X93336159Y-115146048D01*
X93347066Y-115155934D01*
X93356952Y-115166841D01*
X93365720Y-115178664D01*
X93373288Y-115191290D01*
X93379582Y-115204597D01*
X93384541Y-115218457D01*
X93388118Y-115232736D01*
X93390278Y-115247297D01*
X93391000Y-115262000D01*
X93391000Y-116562000D01*
X93390278Y-116576703D01*
X93388118Y-116591264D01*
X93384541Y-116605543D01*
X93379582Y-116619403D01*
X93373288Y-116632710D01*
X93365720Y-116645336D01*
X93356952Y-116657159D01*
X93347066Y-116668066D01*
X93336159Y-116677952D01*
X93324336Y-116686720D01*
X93311710Y-116694288D01*
X93298403Y-116700582D01*
X93284543Y-116705541D01*
X93270264Y-116709118D01*
X93255703Y-116711278D01*
X93241000Y-116712000D01*
X92941000Y-116712000D01*
X92926297Y-116711278D01*
X92911736Y-116709118D01*
X92897457Y-116705541D01*
X92883597Y-116700582D01*
X92870290Y-116694288D01*
X92857664Y-116686720D01*
X92845841Y-116677952D01*
X92834934Y-116668066D01*
X92825048Y-116657159D01*
X92816280Y-116645336D01*
X92808712Y-116632710D01*
X92802418Y-116619403D01*
X92797459Y-116605543D01*
X92793882Y-116591264D01*
X92791722Y-116576703D01*
X92791000Y-116562000D01*
X92791000Y-115262000D01*
X92791722Y-115247297D01*
X92793882Y-115232736D01*
X92797459Y-115218457D01*
X92802418Y-115204597D01*
X92808712Y-115191290D01*
X92816280Y-115178664D01*
X92825048Y-115166841D01*
X92834934Y-115155934D01*
X92845841Y-115146048D01*
X92857664Y-115137280D01*
X92870290Y-115129712D01*
X92883597Y-115123418D01*
X92897457Y-115118459D01*
X92911736Y-115114882D01*
X92926297Y-115112722D01*
X92941000Y-115112000D01*
X93241000Y-115112000D01*
X93255703Y-115112722D01*
X93255703Y-115112722D01*
G37*
D12*
X93091000Y-115912000D03*
D10*
G36*
X91985703Y-115112722D02*
G01*
X92000264Y-115114882D01*
X92014543Y-115118459D01*
X92028403Y-115123418D01*
X92041710Y-115129712D01*
X92054336Y-115137280D01*
X92066159Y-115146048D01*
X92077066Y-115155934D01*
X92086952Y-115166841D01*
X92095720Y-115178664D01*
X92103288Y-115191290D01*
X92109582Y-115204597D01*
X92114541Y-115218457D01*
X92118118Y-115232736D01*
X92120278Y-115247297D01*
X92121000Y-115262000D01*
X92121000Y-116562000D01*
X92120278Y-116576703D01*
X92118118Y-116591264D01*
X92114541Y-116605543D01*
X92109582Y-116619403D01*
X92103288Y-116632710D01*
X92095720Y-116645336D01*
X92086952Y-116657159D01*
X92077066Y-116668066D01*
X92066159Y-116677952D01*
X92054336Y-116686720D01*
X92041710Y-116694288D01*
X92028403Y-116700582D01*
X92014543Y-116705541D01*
X92000264Y-116709118D01*
X91985703Y-116711278D01*
X91971000Y-116712000D01*
X91671000Y-116712000D01*
X91656297Y-116711278D01*
X91641736Y-116709118D01*
X91627457Y-116705541D01*
X91613597Y-116700582D01*
X91600290Y-116694288D01*
X91587664Y-116686720D01*
X91575841Y-116677952D01*
X91564934Y-116668066D01*
X91555048Y-116657159D01*
X91546280Y-116645336D01*
X91538712Y-116632710D01*
X91532418Y-116619403D01*
X91527459Y-116605543D01*
X91523882Y-116591264D01*
X91521722Y-116576703D01*
X91521000Y-116562000D01*
X91521000Y-115262000D01*
X91521722Y-115247297D01*
X91523882Y-115232736D01*
X91527459Y-115218457D01*
X91532418Y-115204597D01*
X91538712Y-115191290D01*
X91546280Y-115178664D01*
X91555048Y-115166841D01*
X91564934Y-115155934D01*
X91575841Y-115146048D01*
X91587664Y-115137280D01*
X91600290Y-115129712D01*
X91613597Y-115123418D01*
X91627457Y-115118459D01*
X91641736Y-115114882D01*
X91656297Y-115112722D01*
X91671000Y-115112000D01*
X91971000Y-115112000D01*
X91985703Y-115112722D01*
X91985703Y-115112722D01*
G37*
D12*
X91821000Y-115912000D03*
D10*
G36*
X90715703Y-115112722D02*
G01*
X90730264Y-115114882D01*
X90744543Y-115118459D01*
X90758403Y-115123418D01*
X90771710Y-115129712D01*
X90784336Y-115137280D01*
X90796159Y-115146048D01*
X90807066Y-115155934D01*
X90816952Y-115166841D01*
X90825720Y-115178664D01*
X90833288Y-115191290D01*
X90839582Y-115204597D01*
X90844541Y-115218457D01*
X90848118Y-115232736D01*
X90850278Y-115247297D01*
X90851000Y-115262000D01*
X90851000Y-116562000D01*
X90850278Y-116576703D01*
X90848118Y-116591264D01*
X90844541Y-116605543D01*
X90839582Y-116619403D01*
X90833288Y-116632710D01*
X90825720Y-116645336D01*
X90816952Y-116657159D01*
X90807066Y-116668066D01*
X90796159Y-116677952D01*
X90784336Y-116686720D01*
X90771710Y-116694288D01*
X90758403Y-116700582D01*
X90744543Y-116705541D01*
X90730264Y-116709118D01*
X90715703Y-116711278D01*
X90701000Y-116712000D01*
X90401000Y-116712000D01*
X90386297Y-116711278D01*
X90371736Y-116709118D01*
X90357457Y-116705541D01*
X90343597Y-116700582D01*
X90330290Y-116694288D01*
X90317664Y-116686720D01*
X90305841Y-116677952D01*
X90294934Y-116668066D01*
X90285048Y-116657159D01*
X90276280Y-116645336D01*
X90268712Y-116632710D01*
X90262418Y-116619403D01*
X90257459Y-116605543D01*
X90253882Y-116591264D01*
X90251722Y-116576703D01*
X90251000Y-116562000D01*
X90251000Y-115262000D01*
X90251722Y-115247297D01*
X90253882Y-115232736D01*
X90257459Y-115218457D01*
X90262418Y-115204597D01*
X90268712Y-115191290D01*
X90276280Y-115178664D01*
X90285048Y-115166841D01*
X90294934Y-115155934D01*
X90305841Y-115146048D01*
X90317664Y-115137280D01*
X90330290Y-115129712D01*
X90343597Y-115123418D01*
X90357457Y-115118459D01*
X90371736Y-115114882D01*
X90386297Y-115112722D01*
X90401000Y-115112000D01*
X90701000Y-115112000D01*
X90715703Y-115112722D01*
X90715703Y-115112722D01*
G37*
D12*
X90551000Y-115912000D03*
D10*
G36*
X89445703Y-115112722D02*
G01*
X89460264Y-115114882D01*
X89474543Y-115118459D01*
X89488403Y-115123418D01*
X89501710Y-115129712D01*
X89514336Y-115137280D01*
X89526159Y-115146048D01*
X89537066Y-115155934D01*
X89546952Y-115166841D01*
X89555720Y-115178664D01*
X89563288Y-115191290D01*
X89569582Y-115204597D01*
X89574541Y-115218457D01*
X89578118Y-115232736D01*
X89580278Y-115247297D01*
X89581000Y-115262000D01*
X89581000Y-116562000D01*
X89580278Y-116576703D01*
X89578118Y-116591264D01*
X89574541Y-116605543D01*
X89569582Y-116619403D01*
X89563288Y-116632710D01*
X89555720Y-116645336D01*
X89546952Y-116657159D01*
X89537066Y-116668066D01*
X89526159Y-116677952D01*
X89514336Y-116686720D01*
X89501710Y-116694288D01*
X89488403Y-116700582D01*
X89474543Y-116705541D01*
X89460264Y-116709118D01*
X89445703Y-116711278D01*
X89431000Y-116712000D01*
X89131000Y-116712000D01*
X89116297Y-116711278D01*
X89101736Y-116709118D01*
X89087457Y-116705541D01*
X89073597Y-116700582D01*
X89060290Y-116694288D01*
X89047664Y-116686720D01*
X89035841Y-116677952D01*
X89024934Y-116668066D01*
X89015048Y-116657159D01*
X89006280Y-116645336D01*
X88998712Y-116632710D01*
X88992418Y-116619403D01*
X88987459Y-116605543D01*
X88983882Y-116591264D01*
X88981722Y-116576703D01*
X88981000Y-116562000D01*
X88981000Y-115262000D01*
X88981722Y-115247297D01*
X88983882Y-115232736D01*
X88987459Y-115218457D01*
X88992418Y-115204597D01*
X88998712Y-115191290D01*
X89006280Y-115178664D01*
X89015048Y-115166841D01*
X89024934Y-115155934D01*
X89035841Y-115146048D01*
X89047664Y-115137280D01*
X89060290Y-115129712D01*
X89073597Y-115123418D01*
X89087457Y-115118459D01*
X89101736Y-115114882D01*
X89116297Y-115112722D01*
X89131000Y-115112000D01*
X89431000Y-115112000D01*
X89445703Y-115112722D01*
X89445703Y-115112722D01*
G37*
D12*
X89281000Y-115912000D03*
D10*
G36*
X89445703Y-107912722D02*
G01*
X89460264Y-107914882D01*
X89474543Y-107918459D01*
X89488403Y-107923418D01*
X89501710Y-107929712D01*
X89514336Y-107937280D01*
X89526159Y-107946048D01*
X89537066Y-107955934D01*
X89546952Y-107966841D01*
X89555720Y-107978664D01*
X89563288Y-107991290D01*
X89569582Y-108004597D01*
X89574541Y-108018457D01*
X89578118Y-108032736D01*
X89580278Y-108047297D01*
X89581000Y-108062000D01*
X89581000Y-109362000D01*
X89580278Y-109376703D01*
X89578118Y-109391264D01*
X89574541Y-109405543D01*
X89569582Y-109419403D01*
X89563288Y-109432710D01*
X89555720Y-109445336D01*
X89546952Y-109457159D01*
X89537066Y-109468066D01*
X89526159Y-109477952D01*
X89514336Y-109486720D01*
X89501710Y-109494288D01*
X89488403Y-109500582D01*
X89474543Y-109505541D01*
X89460264Y-109509118D01*
X89445703Y-109511278D01*
X89431000Y-109512000D01*
X89131000Y-109512000D01*
X89116297Y-109511278D01*
X89101736Y-109509118D01*
X89087457Y-109505541D01*
X89073597Y-109500582D01*
X89060290Y-109494288D01*
X89047664Y-109486720D01*
X89035841Y-109477952D01*
X89024934Y-109468066D01*
X89015048Y-109457159D01*
X89006280Y-109445336D01*
X88998712Y-109432710D01*
X88992418Y-109419403D01*
X88987459Y-109405543D01*
X88983882Y-109391264D01*
X88981722Y-109376703D01*
X88981000Y-109362000D01*
X88981000Y-108062000D01*
X88981722Y-108047297D01*
X88983882Y-108032736D01*
X88987459Y-108018457D01*
X88992418Y-108004597D01*
X88998712Y-107991290D01*
X89006280Y-107978664D01*
X89015048Y-107966841D01*
X89024934Y-107955934D01*
X89035841Y-107946048D01*
X89047664Y-107937280D01*
X89060290Y-107929712D01*
X89073597Y-107923418D01*
X89087457Y-107918459D01*
X89101736Y-107914882D01*
X89116297Y-107912722D01*
X89131000Y-107912000D01*
X89431000Y-107912000D01*
X89445703Y-107912722D01*
X89445703Y-107912722D01*
G37*
D12*
X89281000Y-108712000D03*
D10*
G36*
X90715703Y-107912722D02*
G01*
X90730264Y-107914882D01*
X90744543Y-107918459D01*
X90758403Y-107923418D01*
X90771710Y-107929712D01*
X90784336Y-107937280D01*
X90796159Y-107946048D01*
X90807066Y-107955934D01*
X90816952Y-107966841D01*
X90825720Y-107978664D01*
X90833288Y-107991290D01*
X90839582Y-108004597D01*
X90844541Y-108018457D01*
X90848118Y-108032736D01*
X90850278Y-108047297D01*
X90851000Y-108062000D01*
X90851000Y-109362000D01*
X90850278Y-109376703D01*
X90848118Y-109391264D01*
X90844541Y-109405543D01*
X90839582Y-109419403D01*
X90833288Y-109432710D01*
X90825720Y-109445336D01*
X90816952Y-109457159D01*
X90807066Y-109468066D01*
X90796159Y-109477952D01*
X90784336Y-109486720D01*
X90771710Y-109494288D01*
X90758403Y-109500582D01*
X90744543Y-109505541D01*
X90730264Y-109509118D01*
X90715703Y-109511278D01*
X90701000Y-109512000D01*
X90401000Y-109512000D01*
X90386297Y-109511278D01*
X90371736Y-109509118D01*
X90357457Y-109505541D01*
X90343597Y-109500582D01*
X90330290Y-109494288D01*
X90317664Y-109486720D01*
X90305841Y-109477952D01*
X90294934Y-109468066D01*
X90285048Y-109457159D01*
X90276280Y-109445336D01*
X90268712Y-109432710D01*
X90262418Y-109419403D01*
X90257459Y-109405543D01*
X90253882Y-109391264D01*
X90251722Y-109376703D01*
X90251000Y-109362000D01*
X90251000Y-108062000D01*
X90251722Y-108047297D01*
X90253882Y-108032736D01*
X90257459Y-108018457D01*
X90262418Y-108004597D01*
X90268712Y-107991290D01*
X90276280Y-107978664D01*
X90285048Y-107966841D01*
X90294934Y-107955934D01*
X90305841Y-107946048D01*
X90317664Y-107937280D01*
X90330290Y-107929712D01*
X90343597Y-107923418D01*
X90357457Y-107918459D01*
X90371736Y-107914882D01*
X90386297Y-107912722D01*
X90401000Y-107912000D01*
X90701000Y-107912000D01*
X90715703Y-107912722D01*
X90715703Y-107912722D01*
G37*
D12*
X90551000Y-108712000D03*
D10*
G36*
X91985703Y-107912722D02*
G01*
X92000264Y-107914882D01*
X92014543Y-107918459D01*
X92028403Y-107923418D01*
X92041710Y-107929712D01*
X92054336Y-107937280D01*
X92066159Y-107946048D01*
X92077066Y-107955934D01*
X92086952Y-107966841D01*
X92095720Y-107978664D01*
X92103288Y-107991290D01*
X92109582Y-108004597D01*
X92114541Y-108018457D01*
X92118118Y-108032736D01*
X92120278Y-108047297D01*
X92121000Y-108062000D01*
X92121000Y-109362000D01*
X92120278Y-109376703D01*
X92118118Y-109391264D01*
X92114541Y-109405543D01*
X92109582Y-109419403D01*
X92103288Y-109432710D01*
X92095720Y-109445336D01*
X92086952Y-109457159D01*
X92077066Y-109468066D01*
X92066159Y-109477952D01*
X92054336Y-109486720D01*
X92041710Y-109494288D01*
X92028403Y-109500582D01*
X92014543Y-109505541D01*
X92000264Y-109509118D01*
X91985703Y-109511278D01*
X91971000Y-109512000D01*
X91671000Y-109512000D01*
X91656297Y-109511278D01*
X91641736Y-109509118D01*
X91627457Y-109505541D01*
X91613597Y-109500582D01*
X91600290Y-109494288D01*
X91587664Y-109486720D01*
X91575841Y-109477952D01*
X91564934Y-109468066D01*
X91555048Y-109457159D01*
X91546280Y-109445336D01*
X91538712Y-109432710D01*
X91532418Y-109419403D01*
X91527459Y-109405543D01*
X91523882Y-109391264D01*
X91521722Y-109376703D01*
X91521000Y-109362000D01*
X91521000Y-108062000D01*
X91521722Y-108047297D01*
X91523882Y-108032736D01*
X91527459Y-108018457D01*
X91532418Y-108004597D01*
X91538712Y-107991290D01*
X91546280Y-107978664D01*
X91555048Y-107966841D01*
X91564934Y-107955934D01*
X91575841Y-107946048D01*
X91587664Y-107937280D01*
X91600290Y-107929712D01*
X91613597Y-107923418D01*
X91627457Y-107918459D01*
X91641736Y-107914882D01*
X91656297Y-107912722D01*
X91671000Y-107912000D01*
X91971000Y-107912000D01*
X91985703Y-107912722D01*
X91985703Y-107912722D01*
G37*
D12*
X91821000Y-108712000D03*
D10*
G36*
X93255703Y-107912722D02*
G01*
X93270264Y-107914882D01*
X93284543Y-107918459D01*
X93298403Y-107923418D01*
X93311710Y-107929712D01*
X93324336Y-107937280D01*
X93336159Y-107946048D01*
X93347066Y-107955934D01*
X93356952Y-107966841D01*
X93365720Y-107978664D01*
X93373288Y-107991290D01*
X93379582Y-108004597D01*
X93384541Y-108018457D01*
X93388118Y-108032736D01*
X93390278Y-108047297D01*
X93391000Y-108062000D01*
X93391000Y-109362000D01*
X93390278Y-109376703D01*
X93388118Y-109391264D01*
X93384541Y-109405543D01*
X93379582Y-109419403D01*
X93373288Y-109432710D01*
X93365720Y-109445336D01*
X93356952Y-109457159D01*
X93347066Y-109468066D01*
X93336159Y-109477952D01*
X93324336Y-109486720D01*
X93311710Y-109494288D01*
X93298403Y-109500582D01*
X93284543Y-109505541D01*
X93270264Y-109509118D01*
X93255703Y-109511278D01*
X93241000Y-109512000D01*
X92941000Y-109512000D01*
X92926297Y-109511278D01*
X92911736Y-109509118D01*
X92897457Y-109505541D01*
X92883597Y-109500582D01*
X92870290Y-109494288D01*
X92857664Y-109486720D01*
X92845841Y-109477952D01*
X92834934Y-109468066D01*
X92825048Y-109457159D01*
X92816280Y-109445336D01*
X92808712Y-109432710D01*
X92802418Y-109419403D01*
X92797459Y-109405543D01*
X92793882Y-109391264D01*
X92791722Y-109376703D01*
X92791000Y-109362000D01*
X92791000Y-108062000D01*
X92791722Y-108047297D01*
X92793882Y-108032736D01*
X92797459Y-108018457D01*
X92802418Y-108004597D01*
X92808712Y-107991290D01*
X92816280Y-107978664D01*
X92825048Y-107966841D01*
X92834934Y-107955934D01*
X92845841Y-107946048D01*
X92857664Y-107937280D01*
X92870290Y-107929712D01*
X92883597Y-107923418D01*
X92897457Y-107918459D01*
X92911736Y-107914882D01*
X92926297Y-107912722D01*
X92941000Y-107912000D01*
X93241000Y-107912000D01*
X93255703Y-107912722D01*
X93255703Y-107912722D01*
G37*
D12*
X93091000Y-108712000D03*
D10*
G36*
X85824142Y-107639174D02*
G01*
X85847803Y-107642684D01*
X85871007Y-107648496D01*
X85893529Y-107656554D01*
X85915153Y-107666782D01*
X85935670Y-107679079D01*
X85954883Y-107693329D01*
X85972607Y-107709393D01*
X85988671Y-107727117D01*
X86002921Y-107746330D01*
X86015218Y-107766847D01*
X86025446Y-107788471D01*
X86033504Y-107810993D01*
X86039316Y-107834197D01*
X86042826Y-107857858D01*
X86044000Y-107881750D01*
X86044000Y-108369250D01*
X86042826Y-108393142D01*
X86039316Y-108416803D01*
X86033504Y-108440007D01*
X86025446Y-108462529D01*
X86015218Y-108484153D01*
X86002921Y-108504670D01*
X85988671Y-108523883D01*
X85972607Y-108541607D01*
X85954883Y-108557671D01*
X85935670Y-108571921D01*
X85915153Y-108584218D01*
X85893529Y-108594446D01*
X85871007Y-108602504D01*
X85847803Y-108608316D01*
X85824142Y-108611826D01*
X85800250Y-108613000D01*
X84887750Y-108613000D01*
X84863858Y-108611826D01*
X84840197Y-108608316D01*
X84816993Y-108602504D01*
X84794471Y-108594446D01*
X84772847Y-108584218D01*
X84752330Y-108571921D01*
X84733117Y-108557671D01*
X84715393Y-108541607D01*
X84699329Y-108523883D01*
X84685079Y-108504670D01*
X84672782Y-108484153D01*
X84662554Y-108462529D01*
X84654496Y-108440007D01*
X84648684Y-108416803D01*
X84645174Y-108393142D01*
X84644000Y-108369250D01*
X84644000Y-107881750D01*
X84645174Y-107857858D01*
X84648684Y-107834197D01*
X84654496Y-107810993D01*
X84662554Y-107788471D01*
X84672782Y-107766847D01*
X84685079Y-107746330D01*
X84699329Y-107727117D01*
X84715393Y-107709393D01*
X84733117Y-107693329D01*
X84752330Y-107679079D01*
X84772847Y-107666782D01*
X84794471Y-107656554D01*
X84816993Y-107648496D01*
X84840197Y-107642684D01*
X84863858Y-107639174D01*
X84887750Y-107638000D01*
X85800250Y-107638000D01*
X85824142Y-107639174D01*
X85824142Y-107639174D01*
G37*
D11*
X85344000Y-108125500D03*
D10*
G36*
X85824142Y-105764174D02*
G01*
X85847803Y-105767684D01*
X85871007Y-105773496D01*
X85893529Y-105781554D01*
X85915153Y-105791782D01*
X85935670Y-105804079D01*
X85954883Y-105818329D01*
X85972607Y-105834393D01*
X85988671Y-105852117D01*
X86002921Y-105871330D01*
X86015218Y-105891847D01*
X86025446Y-105913471D01*
X86033504Y-105935993D01*
X86039316Y-105959197D01*
X86042826Y-105982858D01*
X86044000Y-106006750D01*
X86044000Y-106494250D01*
X86042826Y-106518142D01*
X86039316Y-106541803D01*
X86033504Y-106565007D01*
X86025446Y-106587529D01*
X86015218Y-106609153D01*
X86002921Y-106629670D01*
X85988671Y-106648883D01*
X85972607Y-106666607D01*
X85954883Y-106682671D01*
X85935670Y-106696921D01*
X85915153Y-106709218D01*
X85893529Y-106719446D01*
X85871007Y-106727504D01*
X85847803Y-106733316D01*
X85824142Y-106736826D01*
X85800250Y-106738000D01*
X84887750Y-106738000D01*
X84863858Y-106736826D01*
X84840197Y-106733316D01*
X84816993Y-106727504D01*
X84794471Y-106719446D01*
X84772847Y-106709218D01*
X84752330Y-106696921D01*
X84733117Y-106682671D01*
X84715393Y-106666607D01*
X84699329Y-106648883D01*
X84685079Y-106629670D01*
X84672782Y-106609153D01*
X84662554Y-106587529D01*
X84654496Y-106565007D01*
X84648684Y-106541803D01*
X84645174Y-106518142D01*
X84644000Y-106494250D01*
X84644000Y-106006750D01*
X84645174Y-105982858D01*
X84648684Y-105959197D01*
X84654496Y-105935993D01*
X84662554Y-105913471D01*
X84672782Y-105891847D01*
X84685079Y-105871330D01*
X84699329Y-105852117D01*
X84715393Y-105834393D01*
X84733117Y-105818329D01*
X84752330Y-105804079D01*
X84772847Y-105791782D01*
X84794471Y-105781554D01*
X84816993Y-105773496D01*
X84840197Y-105767684D01*
X84863858Y-105764174D01*
X84887750Y-105763000D01*
X85800250Y-105763000D01*
X85824142Y-105764174D01*
X85824142Y-105764174D01*
G37*
D11*
X85344000Y-106250500D03*
M02*
