G04 #@! TF.GenerationSoftware,KiCad,Pcbnew,(5.1.4)-1*
G04 #@! TF.CreationDate,2019-11-10T12:02:18+06:00*
G04 #@! TF.ProjectId,kicad_spi_nor_opi,6b696361-645f-4737-9069-5f6e6f725f6f,rev?*
G04 #@! TF.SameCoordinates,Original*
G04 #@! TF.FileFunction,Legend,Top*
G04 #@! TF.FilePolarity,Positive*
%FSLAX46Y46*%
G04 Gerber Fmt 4.6, Leading zero omitted, Abs format (unit mm)*
G04 Created by KiCad (PCBNEW (5.1.4)-1) date 2019-11-10 12:02:18*
%MOMM*%
%LPD*%
G04 APERTURE LIST*
%ADD10C,0.120000*%
%ADD11C,0.150000*%
G04 APERTURE END LIST*
D10*
X101600000Y-104140000D02*
X76200000Y-104140000D01*
X101600000Y-119380000D02*
X101600000Y-104140000D01*
X76200000Y-119380000D02*
X101600000Y-119380000D01*
X76200000Y-104140000D02*
X76200000Y-119380000D01*
X96520000Y-115630000D02*
X95190000Y-115630000D01*
X95190000Y-115630000D02*
X95190000Y-114300000D01*
X97790000Y-115630000D02*
X97790000Y-113030000D01*
X97790000Y-113030000D02*
X95190000Y-113030000D01*
X95190000Y-113030000D02*
X95190000Y-107890000D01*
X100390000Y-107890000D02*
X95190000Y-107890000D01*
X100390000Y-115630000D02*
X100390000Y-107890000D01*
X100390000Y-115630000D02*
X97790000Y-115630000D01*
X78664760Y-106726680D02*
X79994760Y-106726680D01*
X78664760Y-108056680D02*
X78664760Y-106726680D01*
X81264760Y-106726680D02*
X83864760Y-106726680D01*
X81264760Y-109326680D02*
X81264760Y-106726680D01*
X78664760Y-109326680D02*
X81264760Y-109326680D01*
X83864760Y-106726680D02*
X83864760Y-117006680D01*
X78664760Y-109326680D02*
X78664760Y-117006680D01*
X78664760Y-117006680D02*
X83864760Y-117006680D01*
X88209000Y-108873000D02*
X88209000Y-106188000D01*
X86289000Y-108873000D02*
X88209000Y-108873000D01*
X86289000Y-106188000D02*
X86289000Y-108873000D01*
X93651000Y-109587000D02*
X93651000Y-107912000D01*
X93911000Y-109587000D02*
X93651000Y-109587000D01*
X93911000Y-112312000D02*
X93911000Y-109587000D01*
X93911000Y-115037000D02*
X93651000Y-115037000D01*
X93911000Y-112312000D02*
X93911000Y-115037000D01*
X88461000Y-109587000D02*
X88721000Y-109587000D01*
X88461000Y-112312000D02*
X88461000Y-109587000D01*
X88461000Y-115037000D02*
X88721000Y-115037000D01*
X88461000Y-112312000D02*
X88461000Y-115037000D01*
X84634000Y-106929422D02*
X84634000Y-107446578D01*
X86054000Y-106929422D02*
X86054000Y-107446578D01*
D11*
X97456666Y-116522380D02*
X97456666Y-117236666D01*
X97409047Y-117379523D01*
X97313809Y-117474761D01*
X97170952Y-117522380D01*
X97075714Y-117522380D01*
X97885238Y-116617619D02*
X97932857Y-116570000D01*
X98028095Y-116522380D01*
X98266190Y-116522380D01*
X98361428Y-116570000D01*
X98409047Y-116617619D01*
X98456666Y-116712857D01*
X98456666Y-116808095D01*
X98409047Y-116950952D01*
X97837619Y-117522380D01*
X98456666Y-117522380D01*
X77390666Y-111720380D02*
X77390666Y-112434666D01*
X77343047Y-112577523D01*
X77247809Y-112672761D01*
X77104952Y-112720380D01*
X77009714Y-112720380D01*
X78390666Y-112720380D02*
X77819238Y-112720380D01*
X78104952Y-112720380D02*
X78104952Y-111720380D01*
X78009714Y-111863238D01*
X77914476Y-111958476D01*
X77819238Y-112006095D01*
X87701380Y-110466095D02*
X86701380Y-110466095D01*
X86701380Y-110228000D01*
X86749000Y-110085142D01*
X86844238Y-109989904D01*
X86939476Y-109942285D01*
X87129952Y-109894666D01*
X87272809Y-109894666D01*
X87463285Y-109942285D01*
X87558523Y-109989904D01*
X87653761Y-110085142D01*
X87701380Y-110228000D01*
X87701380Y-110466095D01*
X87701380Y-108942285D02*
X87701380Y-109513714D01*
X87701380Y-109228000D02*
X86701380Y-109228000D01*
X86844238Y-109323238D01*
X86939476Y-109418476D01*
X86987095Y-109513714D01*
X87082380Y-113073904D02*
X87891904Y-113073904D01*
X87987142Y-113026285D01*
X88034761Y-112978666D01*
X88082380Y-112883428D01*
X88082380Y-112692952D01*
X88034761Y-112597714D01*
X87987142Y-112550095D01*
X87891904Y-112502476D01*
X87082380Y-112502476D01*
X88082380Y-111502476D02*
X88082380Y-112073904D01*
X88082380Y-111788190D02*
X87082380Y-111788190D01*
X87225238Y-111883428D01*
X87320476Y-111978666D01*
X87368095Y-112073904D01*
X85796380Y-109894666D02*
X85320190Y-110228000D01*
X85796380Y-110466095D02*
X84796380Y-110466095D01*
X84796380Y-110085142D01*
X84844000Y-109989904D01*
X84891619Y-109942285D01*
X84986857Y-109894666D01*
X85129714Y-109894666D01*
X85224952Y-109942285D01*
X85272571Y-109989904D01*
X85320190Y-110085142D01*
X85320190Y-110466095D01*
X85796380Y-108942285D02*
X85796380Y-109513714D01*
X85796380Y-109228000D02*
X84796380Y-109228000D01*
X84939238Y-109323238D01*
X85034476Y-109418476D01*
X85082095Y-109513714D01*
M02*
